<?xml version="1.0" encoding="UTF-8" standalone="no"?>
<!DOCTYPE svg PUBLIC "-//W3C//DTD SVG 1.1//EN" "http://www.w3.org/Graphics/SVG/1.1/DTD/svg11.dtd">
<svg width="100%" height="100%" viewBox="0 0 109 106" version="1.1" xmlns="http://www.w3.org/2000/svg" xmlns:xlink="http://www.w3.org/1999/xlink" xml:space="preserve" xmlns:serif="http://www.serif.com/" style="fill-rule:evenodd;clip-rule:evenodd;stroke-linecap:round;stroke-linejoin:round;stroke-miterlimit:1.5;">
    <g>
        <path d="M84.5,28L84.5,93L24.5,93L24.5,13L69.5,13L84.5,28Z" style="fill:rgb(219,220,230);stroke:rgb(130,106,237);stroke-width:5.3px;"/>
        <g transform="matrix(4.9801e-17,0.813312,-0.813312,4.9801e-17,95.0731,-40.7249)">
            <path d="M84.5,13L84.5,31.443L66.057,31.443L84.5,13Z" style="fill:rgb(219,220,230);stroke:rgb(130,106,237);stroke-width:3.69px;"/>
        </g>
        <g transform="matrix(0.961324,0,0,1,3.04287,0)">
            <rect x="7.731" y="64.54" width="70.944" height="22.248" style="fill:rgb(130,106,237);"/>
        </g>
        <g transform="matrix(1,0,0,1,-11.5183,2.09321)">
            <g transform="matrix(23,0,0,23,88.0291,81.7589)">
            </g>
            <text x="24.204px" y="81.759px" style="font-family:'DINCondensed-Bold', 'DIN Condensed';font-weight:700;font-stretch:condensed;font-size:23px;fill:white;">GeoJSON</text>
        </g>
        <g transform="matrix(1,0,0,1,1.4423,3.14302)">
            <circle cx="53.058" cy="39.317" r="13.683" style="fill:none;stroke:rgb(130,106,237);stroke-width:3px;"/>
        </g>
        <path d="M54.5,28.777L54.5,56.143" style="fill:none;stroke:rgb(130,106,237);stroke-width:3px;"/>
        <path d="M54.5,28.777C45.378,28.777 46.444,56.143 54.5,56.143" style="fill:none;stroke:rgb(130,106,237);stroke-width:3px;"/>
        <g transform="matrix(-1,0,0,1,109,0)">
            <path d="M54.5,28.777C45.378,28.777 46.444,56.143 54.5,56.143" style="fill:none;stroke:rgb(130,106,237);stroke-width:3px;"/>
        </g>
        <g transform="matrix(2.07295e-08,-1,1,2.07295e-08,12.0398,96.9602)">
            <path d="M54.5,28.777L54.5,56.143" style="fill:none;stroke:rgb(130,106,237);stroke-width:3px;"/>
        </g>
    </g>
</svg>
