<?xml version="1.0" encoding="UTF-8" standalone="no"?><!DOCTYPE svg PUBLIC "-//W3C//DTD SVG 1.1//EN" "http://www.w3.org/Graphics/SVG/1.1/DTD/svg11.dtd"><svg width="100%" height="100%" viewBox="0 0 160 140" version="1.1" xmlns="http://www.w3.org/2000/svg" xmlns:xlink="http://www.w3.org/1999/xlink" xml:space="preserve" xmlns:serif="http://www.serif.com/" style="fill-rule:evenodd;clip-rule:evenodd;stroke-linecap:round;stroke-linejoin:round;stroke-miterlimit:1.5;"><g><g><path d="M48.348,10l-20.813,42.486" style="fill:none;stroke:#dbdce6;stroke-width:4.17px;"/><path d="M27.535,52.486l62.892,36.548" style="fill:none;stroke:#dbdce6;stroke-width:4.17px;"/><path d="M90.427,89.034l21.019,-42.486" style="fill:none;stroke:#dbdce6;stroke-width:4.17px;"/><path d="M111.446,46.548l-63.098,-36.548" style="fill:none;stroke:#dbdce6;stroke-width:4.17px;"/><path d="M111.446,46.548l21.019,18.215" style="fill:none;stroke:#dbdce6;stroke-width:4.17px;"/><path d="M132.465,64.763l0,40.966" style="fill:none;stroke:#dbdce6;stroke-width:4.17px;"/><path d="M132.465,105.729l-42.038,24.271" style="fill:none;stroke:#dbdce6;stroke-width:4.17px;"/><path d="M90.427,130l0,-40.966" style="fill:none;stroke:#dbdce6;stroke-width:4.17px;"/><path d="M27.535,52.604l-0,41.085" style="fill:none;stroke:#dbdce6;stroke-width:4.17px;"/><path d="M27.535,93.689l62.892,36.311" style="fill:none;stroke:#dbdce6;stroke-width:4.17px;"/><path d="M69.594,38.486l-10.668,6.159" style="fill:none;stroke:#dbdce6;stroke-width:4.17px;"/><path d="M58.926,44.645l10.461,6.039" style="fill:none;stroke:#dbdce6;stroke-width:4.17px;"/><path d="M69.387,50.684l10.668,-6.159" style="fill:none;stroke:#dbdce6;stroke-width:4.17px;"/><path d="M80.055,44.525l-10.461,-6.039" style="fill:none;stroke:#dbdce6;stroke-width:4.17px;"/><path d="M69.49,50.625l0,15.316" style="fill:none;stroke:#dbdce6;stroke-width:4.17px;"/><path d="M69.49,65.941l10.461,-21.356" style="fill:none;stroke:#dbdce6;stroke-width:4.17px;"/><path d="M58.926,44.585l-0,15.316" style="fill:none;stroke:#dbdce6;stroke-width:4.17px;"/><path d="M58.926,59.901l10.461,6.04" style="fill:none;stroke:#dbdce6;stroke-width:4.17px;"/></g></g></svg>