<?xml version="1.0" encoding="UTF-8" standalone="no"?>
<!DOCTYPE svg PUBLIC "-//W3C//DTD SVG 1.1//EN" "http://www.w3.org/Graphics/SVG/1.1/DTD/svg11.dtd">
<svg width="100%" height="100%" viewBox="0 0 109 106" version="1.1" xmlns="http://www.w3.org/2000/svg" xmlns:xlink="http://www.w3.org/1999/xlink" xml:space="preserve" xmlns:serif="http://www.serif.com/" style="fill-rule:evenodd;clip-rule:evenodd;stroke-linecap:round;stroke-linejoin:round;stroke-miterlimit:1.5;">
    <g transform="matrix(0.175456,0,0,0.175456,-18.0565,-30.1218)">
        <g transform="matrix(0.830849,0,0,1,27.3006,23.6701)">
            <path d="M820.078,283.606L820.078,613.936C820.078,653.004 781.903,684.721 734.882,684.721L194.494,684.721C147.473,684.721 109.297,653.004 109.297,613.936L109.297,283.606C109.297,244.538 147.473,212.82 194.494,212.82L734.882,212.82C781.903,212.82 820.078,244.538 820.078,283.606Z" style="fill:none;stroke:rgb(219,220,230);stroke-width:33.06px;"/>
        </g>
        <g transform="matrix(0.34338,0,0,1,77.5535,-95.9318)">
            <path d="M118.11,519.215L826.772,519.215" style="fill:none;stroke:rgb(219,220,230);stroke-width:40.66px;"/>
        </g>
        <g transform="matrix(1,0,0,1,-84.7623,-6.06266)">
            <path d="M517.575,243.228L547.742,239.5C551.548,270.292 559.669,288.391 571.572,299.049C583.196,309.456 597.886,312.399 613.034,314.771C639.54,318.921 667.366,321.266 690.169,338.309C715.077,356.926 726.572,387.137 740.893,414.87C752.075,436.527 765.5,456.506 796.031,461.823L790.816,491.769C748.908,484.471 729.234,458.543 713.884,428.816C701.672,405.167 693.212,378.533 671.971,362.657C653.282,348.689 630.056,348.203 608.332,344.802C587.309,341.51 567.427,336.138 551.296,321.695C535.445,307.503 522.642,284.229 517.575,243.228Z" style="fill:rgb(219,220,230);"/>
        </g>
        <g transform="matrix(1,0,0,1,-40.3952,-37.5121)">
            <path d="M524.158,277.011L553.373,268.616C557.614,283.374 563.101,292.851 570.149,298.749C580.993,307.825 594.708,308.341 608.947,309.562C630.987,311.451 654.164,313.73 675.326,329.547C697.474,346.101 708.421,371.01 719.497,395.425C728.104,414.401 736.553,433.245 756.041,443.329L742.072,470.326C716.171,456.924 703.255,433.203 691.815,407.983C682.842,388.204 675.071,367.305 657.128,353.895C636.176,338.235 612.239,341.164 591.293,338.273C576.939,336.292 563.647,332.339 552.106,323.25C540.803,314.349 530.871,300.371 524.158,277.011Z" style="fill:rgb(219,220,230);"/>
        </g>
        <g transform="matrix(0.356525,0,0,0.379753,354.774,268.672)">
            <path d="M118.11,407.138L551.341,407.138L551.341,708.391" style="fill:none;stroke:rgb(219,220,230);stroke-width:82.53px;"/>
        </g>
        <g transform="matrix(0.309601,0,0,1.26895,81.5432,-190.619)">
            <path d="M118.11,407.138L551.341,407.138L551.341,708.391" style="fill:none;stroke:rgb(219,220,230);stroke-width:32.91px;"/>
        </g>
        <g transform="matrix(0.993648,0,0,1.39186,0.750231,-259.632)">
            <path d="M363.006,598.301L118.11,598.301L118.11,572.844L363.006,572.844L363.006,356.446L398.666,356.446L398.666,572.844L712.437,572.844L712.437,598.301L398.666,598.301L398.666,695.49L363.006,695.49L363.006,598.301Z" style="fill:none;stroke:rgb(219,220,230);stroke-width:25.14px;"/>
        </g>
        <path d="M252.239,355.06L252.239,236.49" style="fill:none;stroke:rgb(219,220,230);stroke-width:30.4px;"/>
    </g>
</svg>
