<?xml version="1.0" encoding="UTF-8" standalone="no"?>
<!DOCTYPE svg PUBLIC "-//W3C//DTD SVG 1.1//EN" "http://www.w3.org/Graphics/SVG/1.1/DTD/svg11.dtd">
<svg width="100%" height="100%" viewBox="0 0 109 106" version="1.1" xmlns="http://www.w3.org/2000/svg" xmlns:xlink="http://www.w3.org/1999/xlink" xml:space="preserve" xmlns:serif="http://www.serif.com/" style="fill-rule:evenodd;clip-rule:evenodd;stroke-linecap:round;stroke-linejoin:round;stroke-miterlimit:1.5;">
    <g>
        <g transform="matrix(-7.70802e-09,0.143257,-0.264348,-4.17717e-09,143.734,32.7669)">
            <path d="M428.15,485.441L428.15,189.684" style="fill:none;stroke:rgb(130,106,237);stroke-width:25.09px;"/>
        </g>
        <g transform="matrix(0.924072,0,0,0.924072,7.51329,-19.4921)">
            <g transform="matrix(0.940733,0,0,1.15711,3.48931,-8.35047)">
                <path d="M17.431,49.411C16.499,49.14 15.831,48.415 15.831,47.565C15.831,46.483 16.912,45.604 18.243,45.604L22.087,45.604L22.087,35.844L26.792,35.844C26.792,35.844 32.145,45.604 34.093,45.604L76.25,45.604C80.998,45.604 84.852,47.791 84.852,50.484C84.852,53.178 80.998,55.365 76.25,55.365L36.24,55.365C33.197,55.365 17.427,49.429 17.427,49.429L17.431,49.411Z" style="fill:rgb(130,106,237);"/>
                <path d="M17.427,52.235L17.412,52.217C17.022,52.215 16.635,52.159 16.267,52.052L14.702,51.363L13.477,50.339L12.67,49.046L12.38,47.565L12.5,46.607L12.843,45.708L13.384,44.898L14.098,44.195L14.963,43.615L15.959,43.175L17.065,42.895L18.243,42.798L18.636,42.798L18.636,35.844C18.636,34.294 20.181,33.038 22.087,33.038L26.792,33.038C28.154,33.038 29.389,33.689 29.944,34.701C29.944,34.701 31.98,38.419 33.956,41.169C34.358,41.729 34.927,42.388 35.293,42.798L76.25,42.798C80.089,42.798 83.46,43.938 85.571,45.571C87.34,46.939 88.303,48.659 88.303,50.484C88.303,52.31 87.34,54.029 85.571,55.398C83.46,57.031 80.089,58.17 76.25,58.17L36.24,58.17C35.127,58.17 32.583,57.619 29.615,56.707C23.892,54.949 16.126,52.031 15.979,51.976C16.433,52.146 16.927,52.235 17.427,52.235C18.364,52.235 19.228,51.928 19.857,51.42C20.139,51.206 20.391,50.934 20.577,50.589C25.342,52.316 34.06,55.365 36.24,55.365L76.25,55.365C80.998,55.365 84.852,53.178 84.852,50.484C84.852,47.791 80.998,45.604 76.25,45.604L34.093,45.604C32.145,45.604 26.792,35.844 26.792,35.844L22.087,35.844L22.087,45.604L18.243,45.604C16.912,45.604 15.831,46.483 15.831,47.565C15.831,48.415 16.499,49.14 17.431,49.411L17.427,49.429C17.427,49.429 18.474,49.823 20.08,50.408L17.427,52.235ZM19.857,51.42C19.749,51.503 19.637,51.576 19.523,51.643C19.967,51.367 20.328,51.006 20.566,50.585C20.568,50.585 20.569,50.586 20.57,50.586C20.395,50.901 20.152,51.183 19.857,51.42ZM19.523,51.643C18.944,52.001 18.225,52.213 17.453,52.216C17.619,52.21 18.636,52.155 19.523,51.643ZM17.41,52.213C17.156,51.902 14.175,48.255 14.03,48.932C13.475,51.535 17.1,52.165 17.41,52.213Z" style="fill:rgb(219,220,230);"/>
            </g>
            <g transform="matrix(-1,-1.22465e-16,1.24624e-16,-1.01763,90.6456,112.308)">
                <path d="M43.934,61.164L32.606,61.164L46.727,50.066L53.064,50.066L43.934,61.164Z" style="fill:rgb(130,106,237);"/>
                <path d="M43.934,64.355L32.606,64.355C31.227,64.355 29.999,63.499 29.542,62.22C29.086,60.942 29.501,59.519 30.578,58.673L44.699,47.574C45.275,47.122 45.99,46.876 46.727,46.876L53.064,46.876C54.315,46.876 55.454,47.582 55.993,48.691C56.532,49.8 56.375,51.115 55.589,52.071L46.459,63.17C45.843,63.919 44.915,64.355 43.934,64.355ZM43.934,61.164L53.064,50.066L46.727,50.066L32.606,61.164L43.934,61.164Z" style="fill:rgb(219,220,230);"/>
            </g>
        </g>
        <g transform="matrix(0.915253,0.184607,0.120429,0.722837,-7.30042,23.2372)">
            <path d="M15.409,94.102L54.5,19.822" style="fill:none;stroke:rgb(130,106,237);stroke-width:3.08px;"/>
        </g>
        <g transform="matrix(0.617501,-0.700329,0.686209,0.257124,16.7762,80.6975)">
            <path d="M15.409,94.102L54.5,19.822" style="fill:none;stroke:rgb(130,106,237);stroke-width:3.08px;"/>
        </g>
    </g>
</svg>
