<?xml version="1.0" encoding="UTF-8" standalone="no"?>
<!DOCTYPE svg PUBLIC "-//W3C//DTD SVG 1.1//EN" "http://www.w3.org/Graphics/SVG/1.1/DTD/svg11.dtd">
<svg width="100%" height="100%" viewBox="0 0 109 106" version="1.1" xmlns="http://www.w3.org/2000/svg" xmlns:xlink="http://www.w3.org/1999/xlink" xml:space="preserve" xmlns:serif="http://www.serif.com/" style="fill-rule:evenodd;clip-rule:evenodd;stroke-linejoin:round;stroke-miterlimit:2;">
    <g transform="matrix(-8.38366e-09,0.143257,-0.28752,-4.17717e-09,149.042,32.7669)">
        <path d="M438.62,485.441L417.679,485.441L417.679,480.16L438.62,480.16L438.62,485.441ZM438.62,469.597L417.679,469.597L417.679,459.034L438.62,459.034L438.62,469.597ZM438.62,448.471L417.679,448.471L417.679,437.908L438.62,437.908L438.62,448.471ZM438.62,427.346L417.679,427.346L417.679,416.783L438.62,416.783L438.62,427.346ZM438.62,406.22L417.679,406.22L417.679,395.657L438.62,395.657L438.62,406.22ZM438.62,385.095L417.679,385.095L417.679,374.532L438.62,374.532L438.62,385.095ZM438.62,363.97L417.679,363.97L417.679,353.407L438.62,353.407L438.62,363.97ZM438.62,342.844L417.679,342.844L417.679,332.281L438.62,332.281L438.62,342.844ZM438.62,321.719L417.679,321.719L417.679,311.156L438.62,311.156L438.62,321.719ZM438.62,300.593L417.679,300.593L417.679,290.03L438.62,290.03L438.62,300.593ZM438.62,279.467L417.679,279.467L417.679,268.905L438.62,268.905L438.62,279.467ZM438.62,258.342L417.679,258.342L417.679,247.78L438.62,247.78L438.62,258.342ZM438.62,237.216L417.679,237.216L417.679,226.654L438.62,226.654L438.62,237.216ZM438.62,216.091L417.679,216.091L417.679,205.528L438.62,205.528L438.62,216.091ZM438.62,194.965L417.679,194.965L417.679,189.684L438.62,189.684L438.62,194.965Z" style="fill:rgb(130,106,237);"/>
    </g>
    <g transform="matrix(2.14401,0,0,0.814412,-32.3123,8.11567)">
        <path d="M44.279,64.978L44.279,64.62L44.486,64.62L45.101,63.555L45.574,65.449C45.716,66.015 45.728,66.739 45.606,67.335C45.484,67.932 45.247,68.303 44.99,68.303L44.279,68.303L44.279,66.97L43.932,65.58L44.279,64.978ZM22.762,64.62L22.968,64.62L22.968,64.978L23.316,65.58L22.968,66.97L22.968,68.303L22.258,68.303C22,68.303 21.764,67.932 21.642,67.335C21.52,66.739 21.532,66.015 21.673,65.449L22.147,63.555L22.762,64.62ZM42.859,64.62L42.859,68.303L41.438,68.303L41.438,64.62L42.859,64.62ZM40.017,64.62L40.017,68.303L38.596,68.303L38.596,64.62L40.017,64.62ZM37.176,64.62L37.176,68.303L35.755,68.303L35.755,64.62L37.176,64.62ZM34.334,64.62L34.334,68.303L32.913,68.303L32.913,64.62L34.334,64.62ZM31.493,64.62L31.493,68.303L30.072,68.303L30.072,64.62L31.493,64.62ZM28.651,64.62L28.651,68.303L27.23,68.303L27.23,64.62L28.651,64.62ZM25.81,64.62L25.81,68.303L24.389,68.303L24.389,64.62L25.81,64.62ZM24.263,61.791L23.094,59.766L24.041,55.977L25.21,58.002L24.263,61.791ZM26.157,54.214L24.988,52.189L25.936,48.4L27.104,50.425L26.157,54.214ZM28.052,46.636L26.883,44.611L27.356,42.717C27.486,42.199 27.705,41.888 27.941,41.888L28.651,41.888L28.651,45.571L28.318,45.571L28.052,46.636ZM30.072,45.571L30.072,41.888L31.493,41.888L31.493,45.571L30.072,45.571ZM32.913,45.571L32.913,41.888L34.334,41.888L34.334,45.571L32.913,45.571ZM35.755,45.571L35.755,41.888L37.176,41.888L37.176,45.571L35.755,45.571ZM38.596,45.571L38.596,41.888L39.307,41.888C39.542,41.888 39.762,42.199 39.891,42.717L40.365,44.611L39.196,46.636L38.93,45.571L38.596,45.571ZM40.143,50.425L41.312,48.4L42.259,52.189L41.09,54.214L40.143,50.425ZM42.037,58.002L43.206,55.977L44.153,59.766L42.985,61.791L42.037,58.002Z" style="fill:rgb(130,106,237);"/>
    </g>
    <g transform="matrix(0.951595,0,0,1,-3.68426,0)">
        <path d="M63.767,63.743L63.767,60.743L65.384,60.743C66.255,60.743 66.961,61.414 66.961,62.243L66.961,63.836L63.808,63.836L63.808,63.743L63.767,63.743ZM63.808,67.022L66.961,67.022L66.961,70.208L63.808,70.208L63.808,67.022ZM63.808,73.394L66.961,73.394L66.961,76.58L63.808,76.58L63.808,73.394ZM63.808,79.766L66.961,79.766L66.961,82.952L63.808,82.952L63.808,79.766ZM63.808,86.138L66.961,86.138L66.961,89.323L63.808,89.323L63.808,86.138ZM63.808,92.509L66.961,92.509L66.961,94.102C66.961,94.931 66.255,95.602 65.384,95.602L63.767,95.602L63.767,92.602L63.808,92.602L63.808,92.509ZM60.531,92.602L60.531,95.602L57.296,95.602L57.296,92.602L60.531,92.602ZM54.06,92.602L54.06,95.602L50.825,95.602L50.825,92.602L54.06,92.602ZM47.589,92.602L47.589,95.602L44.354,95.602L44.354,92.602L47.589,92.602ZM41.118,92.602L41.118,95.602L37.883,95.602L37.883,92.602L41.118,92.602ZM34.647,92.602L34.647,95.602L31.412,95.602L31.412,92.602L34.647,92.602ZM28.176,92.602L28.176,95.602L26.558,95.602C25.688,95.602 24.982,94.931 24.982,94.102L24.982,92.509L28.135,92.509L28.135,92.602L28.176,92.602ZM28.135,89.323L24.982,89.323L24.982,86.137L28.135,86.137L28.135,89.323ZM28.135,82.952L24.982,82.952L24.982,79.766L28.135,79.766L28.135,82.952ZM28.135,76.58L24.982,76.58L24.982,73.394L28.135,73.394L28.135,76.58ZM28.135,70.208L24.982,70.208L24.982,67.022L28.135,67.022L28.135,70.208ZM28.135,63.836L24.982,63.836L24.982,62.243C24.982,61.414 25.688,60.743 26.558,60.743L28.176,60.743L28.176,63.743L28.135,63.743L28.135,63.836ZM31.412,63.743L31.412,60.743L34.647,60.743L34.647,63.743L31.412,63.743ZM37.883,63.743L37.883,60.743L41.118,60.743L41.118,63.743L37.883,63.743ZM44.354,63.743L44.354,60.743L47.589,60.743L47.589,63.743L44.354,63.743ZM50.825,63.743L50.825,60.743L54.06,60.743L54.06,63.743L50.825,63.743ZM57.296,63.743L57.296,60.743L60.531,60.743L60.531,63.743L57.296,63.743Z" style="fill:rgb(130,106,237);"/>
    </g>
    <g transform="matrix(1,0,0,1,2,-13.7387)">
        <path d="M79.12,24.614L78.443,21.692C79.044,21.552 79.655,21.481 80.274,21.481C80.893,21.481 81.504,21.552 82.105,21.692L81.428,24.614C81.049,24.527 80.664,24.481 80.274,24.481C79.884,24.481 79.499,24.527 79.12,24.614ZM83.636,25.628L85.343,23.161C86.213,23.763 87.05,24.524 87.841,25.431L85.579,27.403C84.963,26.695 84.314,26.098 83.636,25.628ZM87.203,29.635L89.758,28.062C90.289,28.925 90.791,29.866 91.257,30.875L88.533,32.133C88.119,31.237 87.675,30.401 87.203,29.635ZM89.61,34.794L92.439,33.795C92.775,34.747 93.084,35.744 93.363,36.78L90.466,37.56C90.208,36.6 89.922,35.676 89.61,34.794ZM91.126,40.394L94.068,39.81C94.265,40.803 94.436,41.824 94.578,42.869L91.606,43.274C91.472,42.29 91.311,41.329 91.126,40.394ZM91.919,46.184L94.909,45.946C94.99,46.958 95.044,47.988 95.071,49.033L92.072,49.111C92.047,48.12 91.995,47.143 91.919,46.184ZM92.072,52.043L95.071,52.121C95.044,53.166 94.99,54.196 94.909,55.208L91.919,54.97C91.995,54.01 92.047,53.034 92.072,52.043ZM91.606,57.88L94.578,58.285C94.436,59.33 94.265,60.351 94.068,61.344L91.126,60.76C91.311,59.825 91.472,58.864 91.606,57.88ZM90.466,63.594L93.363,64.373C93.084,65.41 92.775,66.407 92.439,67.359L89.61,66.359C89.922,65.477 90.208,64.554 90.466,63.594ZM88.533,69.021L91.257,70.278C90.791,71.288 90.289,72.229 89.758,73.092L87.203,71.519C87.675,70.753 88.119,69.917 88.533,69.021ZM85.579,73.751L87.841,75.723C87.05,76.63 86.213,77.391 85.343,77.993L83.636,75.526C84.314,75.056 84.963,74.459 85.579,73.751ZM81.428,76.54L82.105,79.462C81.504,79.601 80.893,79.673 80.274,79.673C79.655,79.673 79.044,79.601 78.443,79.462L79.12,76.54C79.499,76.627 79.884,76.673 80.274,76.673C80.664,76.673 81.049,76.627 81.428,76.54ZM76.912,75.526L75.205,77.993C74.335,77.391 73.498,76.63 72.707,75.723L74.968,73.751C75.585,74.459 76.233,75.056 76.912,75.526ZM73.345,71.519L70.79,73.092C70.259,72.229 69.757,71.288 69.291,70.278L72.015,69.021C72.429,69.917 72.873,70.753 73.345,71.519ZM70.938,66.359L68.109,67.359C67.773,66.407 67.464,65.41 67.185,64.373L70.082,63.594C70.34,64.554 70.626,65.477 70.938,66.359ZM69.422,60.76L66.48,61.344C66.283,60.351 66.112,59.33 65.97,58.285L68.942,57.88C69.076,58.864 69.237,59.825 69.422,60.76ZM68.629,54.97L65.639,55.208C65.558,54.196 65.504,53.166 65.477,52.121L68.476,52.043C68.501,53.034 68.553,54.011 68.629,54.97ZM68.476,49.111L65.477,49.033C65.504,47.988 65.558,46.958 65.639,45.946L68.629,46.184C68.553,47.143 68.501,48.12 68.476,49.111ZM68.942,43.274L65.97,42.869C66.112,41.824 66.283,40.803 66.48,39.81L69.422,40.394C69.237,41.329 69.076,42.29 68.942,43.274ZM70.082,37.56L67.185,36.78C67.464,35.744 67.773,34.747 68.109,33.795L70.938,34.794C70.626,35.676 70.34,36.6 70.082,37.56ZM72.015,32.133L69.291,30.875C69.757,29.866 70.259,28.925 70.79,28.062L73.345,29.635C72.873,30.401 72.429,31.237 72.015,32.133ZM74.968,27.403L72.707,25.431C73.498,24.524 74.335,23.763 75.205,23.161L76.912,25.628C76.233,26.098 75.585,26.695 74.968,27.403Z" style="fill:rgb(130,106,237);"/>
    </g>
    <g transform="matrix(1,0,0,0.931227,7.2056,6.4717)">
        <path d="M73.568,62.243L76.568,62.243L76.568,64.234L73.568,64.234L73.568,62.243ZM73.568,68.216L76.568,68.216L76.568,72.199L73.568,72.199L73.568,68.216ZM73.568,76.181L76.568,76.181L76.568,80.164L73.568,80.164L73.568,76.181ZM73.568,84.146L76.568,84.146L76.568,88.129L73.568,88.129L73.568,84.146ZM73.568,92.111L76.568,92.111L76.568,94.102L73.568,94.102L73.568,92.111Z" style="fill:rgb(130,106,237);"/>
    </g>
</svg>
